<?xml version="1.0" encoding="UTF-8"?>
<svg xmlns="http://www.w3.org/2000/svg" xmlns:xlink="http://www.w3.org/1999/xlink" width="720pt" height="273.6pt" viewBox="0 0 720 273.6" version="1.1">
<defs>
<clipPath id="clip1">
  <path d="M 0 0 L 325 0 L 325 273.601563 L 0 273.601563 Z M 0 0 "/>
</clipPath>
</defs>
<g id="surface1">
<path style=" stroke:none;fill-rule:evenodd;fill:rgb(0%,58.006287%,59.568787%);fill-opacity:1;" d="M 0.03125 273.523438 L 720.058594 273.523438 L 720.058594 -0.046875 L 0.03125 -0.046875 Z M 0.03125 273.523438 "/>
<g clip-path="url(#clip1)" clip-rule="nonzero">
<path style=" stroke:none;fill-rule:evenodd;fill:rgb(100%,100%,100%);fill-opacity:1;" d="M 0.03125 -0.046875 L 324.621094 -0.046875 L 205.570313 273.523438 L 125.464844 273.523438 Z M 0.03125 -0.046875 "/>
<path style=" stroke:none;fill-rule:evenodd;fill:rgb(6.665039%,16.088867%,44.700623%);fill-opacity:1;" d="M 0.03125 -0.046875 L 324.621094 -0.046875 L 205.570313 273.523438 L 169.21875 113.367188 L 199.433594 102.628906 L 154.253906 85.335938 L 125.464844 273.523438 Z M 0.03125 -0.046875 "/>
</g>
<path style="fill-rule:evenodd;fill:rgb(6.665039%,16.088867%,44.700623%);fill-opacity:1;stroke-width:2;stroke-linecap:butt;stroke-linejoin:miter;stroke:rgb(0%,0%,0%);stroke-opacity:1;stroke-miterlimit:4;" d="M 1611.992188 1795.296875 C 1635.039063 1795.296875 1653.671875 1776.585938 1653.671875 1753.460938 C 1653.671875 1730.335938 1634.960938 1711.625 1611.992188 1711.625 C 1588.984375 1711.625 1570.351563 1730.335938 1570.351563 1753.460938 C 1570.351563 1776.585938 1588.984375 1795.296875 1611.992188 1795.296875 Z M 1611.992188 1795.296875 " transform="matrix(0.1,0,0,-0.1,0,273.6)"/>
<path style=" stroke:none;fill-rule:evenodd;fill:rgb(100%,100%,100%);fill-opacity:1;" d="M 277.496094 241.652344 L 277.496094 192.472656 L 282.195313 192.472656 L 300.914063 235.371094 L 300.914063 192.472656 L 304.820313 192.472656 L 304.820313 241.652344 L 300.015625 241.652344 L 281.390625 199.589844 L 281.390625 241.652344 Z M 333.066406 241.785156 C 332.460938 241.914063 331.953125 242.003906 331.546875 242.039063 C 331.140625 242.082031 330.746094 242.101563 330.359375 242.101563 C 329.390625 242.101563 328.578125 241.863281 327.929688 241.355469 C 327.269531 240.851563 326.765625 240.066406 326.402344 239.023438 C 325.367188 240.246094 324.191406 241.164063 322.859375 241.785156 C 321.527344 242.410156 320.039063 242.71875 318.402344 242.71875 C 315.742188 242.71875 313.664063 241.828125 312.15625 240.058594 C 310.648438 238.285156 309.902344 235.820313 309.902344 232.664063 C 309.902344 229.894531 310.570313 227.667969 311.914063 225.976563 C 313.253906 224.289063 315.585938 222.808594 318.886719 221.523438 C 319.578125 221.257813 320.515625 220.929688 321.691406 220.523438 C 324.871094 219.417969 326.464844 217.96875 326.464844 216.164063 L 326.464844 213.140625 C 326.464844 211.203125 326.046875 209.785156 325.203125 208.90625 C 324.367188 208.023438 322.996094 207.585938 321.109375 207.585938 C 319.117188 207.585938 317.601563 208.15625 316.554688 209.289063 C 315.511719 210.433594 314.960938 212.140625 314.894531 214.394531 L 311.15625 214.394531 L 311.15625 213.621094 C 311.15625 210.851563 312.066406 208.640625 313.894531 207.011719 C 315.71875 205.371094 318.171875 204.5625 321.242188 204.5625 C 323.066406 204.5625 324.597656 204.789063 325.851563 205.242188 C 327.09375 205.695313 328.09375 206.386719 328.84375 207.332031 C 329.359375 207.980469 329.734375 208.742188 329.953125 209.609375 C 330.183594 210.480469 330.289063 211.742188 330.289063 213.394531 L 330.289063 234.917969 C 330.289063 236.746094 330.460938 237.878906 330.777344 238.308594 C 331.097656 238.738281 331.734375 238.957031 332.683594 238.957031 L 333.066406 238.957031 Z M 326.335938 222.257813 C 320.746094 224.421875 317.28125 226.171875 315.9375 227.515625 C 314.597656 228.847656 313.925781 230.5625 313.925781 232.664063 C 313.925781 234.710938 314.398438 236.316406 315.34375 237.503906 C 316.289063 238.683594 317.578125 239.277344 319.21875 239.277344 C 321.660156 239.277344 323.464844 238.386719 324.605469 236.613281 C 325.761719 234.84375 326.335938 232.0625 326.335938 228.253906 Z M 347.164063 241.851563 C 346.714844 241.949219 346.253906 242.039063 345.789063 242.09375 C 345.328125 242.148438 344.800781 242.164063 344.195313 242.164063 C 341.984375 242.164063 340.480469 241.652344 339.675781 240.605469 C 338.871094 239.5625 338.464844 237.011719 338.464844 232.949219 L 338.464844 208.652344 L 334.824219 208.652344 L 334.824219 205.429688 L 338.464844 205.429688 L 338.464844 195.171875 L 342.273438 195.171875 L 342.273438 205.429688 L 347.164063 205.429688 L 347.164063 208.652344 L 342.273438 208.652344 L 342.273438 233.734375 C 342.273438 236.152344 342.480469 237.660156 342.898438 238.21875 C 343.316406 238.789063 344.109375 239.078125 345.261719 239.078125 C 345.503906 239.078125 345.78125 239.066406 346.097656 239.035156 C 346.429688 238.996094 346.78125 238.945313 347.164063 238.878906 Z M 352.820313 205.429688 L 356.84375 205.429688 L 356.84375 241.652344 L 352.820313 241.652344 Z M 368.304688 223.632813 C 368.304688 228.746094 368.933594 232.621094 370.1875 235.230469 C 371.449219 237.835938 373.308594 239.144531 375.785156 239.144531 C 378.246094 239.144531 380.121094 237.835938 381.382813 235.207031 C 382.648438 232.589844 383.285156 228.726563 383.285156 223.632813 C 383.285156 218.539063 382.648438 214.691406 381.382813 212.0625 C 380.121094 209.445313 378.246094 208.136719 375.785156 208.136719 C 373.308594 208.136719 371.449219 209.445313 370.1875 212.046875 C 368.933594 214.660156 368.304688 218.53125 368.304688 223.632813 Z M 364.148438 223.632813 C 364.148438 217.277344 365.113281 212.511719 367.0625 209.335938 C 369.007813 206.15625 371.914063 204.5625 375.773438 204.5625 C 379.644531 204.5625 382.550781 206.15625 384.476563 209.335938 C 386.410156 212.511719 387.378906 217.277344 387.378906 223.632813 C 387.378906 230.003906 386.421875 234.753906 384.496094 237.914063 C 382.570313 241.070313 379.664063 242.652344 375.773438 242.652344 C 371.867188 242.652344 368.953125 241.070313 367.027344 237.914063 C 365.105469 234.753906 364.148438 230.003906 364.148438 223.632813 Z M 410.574219 241.652344 L 410.574219 217.222656 C 410.574219 213.394531 410.179688 210.90625 409.386719 209.742188 C 408.585938 208.585938 407.15625 208.003906 405.097656 208.003906 C 403.183594 208.003906 401.453125 208.640625 399.90625 209.90625 C 398.355469 211.167969 397.585938 212.535156 397.585938 213.996094 L 397.585938 241.652344 L 393.621094 241.652344 L 393.621094 205.429688 L 397.199219 205.429688 L 397.199219 209.390625 C 398.398438 207.695313 399.71875 206.453125 401.148438 205.667969 C 402.578125 204.890625 404.203125 204.496094 406.03125 204.496094 C 408.992188 204.496094 411.148438 205.398438 412.496094 207.210938 C 413.851563 209.027344 414.535156 211.953125 414.535156 215.96875 L 414.535156 241.652344 Z M 442.175781 241.785156 C 441.570313 241.914063 441.066406 242.003906 440.65625 242.039063 C 440.246094 242.082031 439.855469 242.101563 439.46875 242.101563 C 438.503906 242.101563 437.6875 241.863281 437.039063 241.355469 C 436.378906 240.851563 435.871094 240.066406 435.511719 239.023438 C 434.476563 240.246094 433.300781 241.164063 431.96875 241.785156 C 430.636719 242.410156 429.152344 242.71875 427.511719 242.71875 C 424.851563 242.71875 422.773438 241.828125 421.265625 240.058594 C 419.757813 238.285156 419.011719 235.820313 419.011719 232.664063 C 419.011719 229.894531 419.679688 227.667969 421.023438 225.976563 C 422.363281 224.289063 424.699219 222.808594 427.996094 221.523438 C 428.691406 221.257813 429.621094 220.929688 430.800781 220.523438 C 433.980469 219.417969 435.574219 217.96875 435.574219 216.164063 L 435.574219 213.140625 C 435.574219 211.203125 435.160156 209.785156 434.3125 208.90625 C 433.476563 208.023438 432.113281 207.585938 430.21875 207.585938 C 428.226563 207.585938 426.710938 208.15625 425.664063 209.289063 C 424.621094 210.433594 424.070313 212.140625 424.003906 214.394531 L 420.265625 214.394531 L 420.265625 213.621094 C 420.265625 210.851563 421.175781 208.640625 423.003906 207.011719 C 424.828125 205.371094 427.28125 204.5625 430.351563 204.5625 C 432.175781 204.5625 433.703125 204.789063 434.960938 205.242188 C 436.203125 205.695313 437.203125 206.386719 437.953125 207.332031 C 438.46875 207.980469 438.84375 208.742188 439.0625 209.609375 C 439.289063 210.480469 439.40625 211.742188 439.40625 213.394531 L 439.40625 234.917969 C 439.40625 236.746094 439.570313 237.878906 439.886719 238.308594 C 440.203125 238.738281 440.84375 238.957031 441.789063 238.957031 L 442.175781 238.957031 Z M 435.445313 222.257813 C 429.855469 224.421875 426.390625 226.171875 425.050781 227.515625 C 423.703125 228.847656 423.035156 230.5625 423.035156 232.664063 C 423.035156 234.710938 423.507813 236.316406 424.453125 237.503906 C 425.402344 238.683594 426.6875 239.277344 428.328125 239.277344 C 430.769531 239.277344 432.574219 238.386719 433.71875 236.613281 C 434.871094 234.84375 435.445313 232.0625 435.445313 228.253906 Z M 448.160156 192.472656 L 452.117188 192.472656 L 452.117188 241.652344 L 448.160156 241.652344 Z M 477.835938 192.472656 L 481.996094 192.472656 L 481.996094 241.652344 L 477.835938 241.652344 Z M 506.785156 241.652344 L 506.785156 217.222656 C 506.785156 213.394531 506.390625 210.90625 505.597656 209.742188 C 504.789063 208.585938 503.363281 208.003906 501.308594 208.003906 C 499.394531 208.003906 497.664063 208.640625 496.117188 209.90625 C 494.566406 211.167969 493.789063 212.535156 493.789063 213.996094 L 493.789063 241.652344 L 489.835938 241.652344 L 489.835938 205.429688 L 493.410156 205.429688 L 493.410156 209.390625 C 494.609375 207.695313 495.929688 206.453125 497.359375 205.667969 C 498.789063 204.890625 500.414063 204.496094 502.242188 204.496094 C 505.203125 204.496094 507.359375 205.398438 508.710938 207.210938 C 510.0625 209.027344 510.746094 211.953125 510.746094 215.96875 L 510.746094 241.652344 Z M 516.222656 231.828125 L 519.929688 231.828125 C 519.929688 234.238281 520.496094 236.074219 521.632813 237.363281 C 522.777344 238.636719 524.414063 239.277344 526.570313 239.277344 C 528.628906 239.277344 530.257813 238.683594 531.445313 237.484375 C 532.644531 236.292969 533.238281 234.664063 533.238281 232.597656 C 533.238281 229.507813 530.566406 226.570313 525.203125 223.796875 C 524.664063 223.523438 524.261719 223.316406 523.988281 223.183594 C 521.128906 221.6875 519.246094 220.246094 518.34375 218.882813 C 517.441406 217.519531 516.992188 215.648438 516.992188 213.261719 C 516.992188 210.644531 517.804688 208.519531 519.445313 206.914063 C 521.074219 205.292969 523.238281 204.496094 525.921875 204.496094 C 529.164063 204.496094 531.621094 205.332031 533.304688 206.992188 C 534.976563 208.652344 535.878906 211.160156 536.011719 214.515625 L 532.402344 214.515625 C 532.105469 212.238281 531.453125 210.539063 530.464844 209.445313 C 529.476563 208.332031 528.113281 207.785156 526.371094 207.785156 C 524.59375 207.785156 523.183594 208.269531 522.160156 209.234375 C 521.136719 210.203125 520.632813 211.523438 520.632813 213.195313 C 520.632813 216.011719 523.570313 218.914063 529.433594 221.894531 C 530.121094 222.257813 530.652344 222.535156 531.015625 222.699219 C 533.007813 223.734375 534.535156 225.097656 535.601563 226.78125 C 536.671875 228.464844 537.199219 230.386719 537.199219 232.535156 C 537.199219 235.589844 536.230469 238.039063 534.289063 239.914063 C 532.371094 241.785156 529.804688 242.71875 526.628906 242.71875 C 523.285156 242.71875 520.710938 241.804688 518.914063 239.980469 C 517.121094 238.15625 516.222656 235.542969 516.222656 232.148438 Z M 546.613281 205.429688 L 546.613281 229.894531 C 546.613281 233.722656 547.007813 236.207031 547.800781 237.351563 C 548.601563 238.507813 550.035156 239.078125 552.089844 239.078125 C 554.003906 239.078125 555.730469 238.441406 557.28125 237.171875 C 558.828125 235.910156 559.601563 234.542969 559.601563 233.082031 L 559.601563 205.429688 L 563.5625 205.429688 L 563.5625 241.652344 L 560.023438 241.652344 L 560.023438 237.691406 C 558.800781 239.363281 557.46875 240.597656 556.039063 241.398438 C 554.609375 242.191406 552.980469 242.585938 551.15625 242.585938 C 548.195313 242.585938 546.039063 241.6875 544.6875 239.882813 C 543.335938 238.078125 542.652344 235.164063 542.652344 231.148438 L 542.652344 205.429688 Z M 570.808594 241.652344 L 570.808594 205.429688 L 574.648438 205.429688 L 574.648438 209.398438 C 575.464844 207.847656 576.507813 206.707031 577.789063 205.980469 C 579.070313 205.242188 580.664063 204.878906 582.578125 204.878906 L 583.285156 204.878906 L 583.285156 208.785156 C 579.972656 208.914063 577.703125 209.753906 576.484375 211.316406 C 575.265625 212.871094 574.648438 215.988281 574.648438 220.671875 L 574.648438 241.652344 Z M 608.011719 241.785156 C 607.40625 241.914063 606.898438 242.003906 606.492188 242.039063 C 606.085938 242.082031 605.6875 242.101563 605.304688 242.101563 C 604.335938 242.101563 603.523438 241.863281 602.871094 241.355469 C 602.214844 240.851563 601.703125 240.066406 601.34375 239.023438 C 600.308594 240.246094 599.132813 241.164063 597.800781 241.785156 C 596.472656 242.410156 594.984375 242.71875 593.347656 242.71875 C 590.683594 242.71875 588.605469 241.828125 587.097656 240.058594 C 585.59375 238.285156 584.84375 235.820313 584.84375 232.664063 C 584.84375 229.894531 585.515625 227.667969 586.855469 225.976563 C 588.199219 224.289063 590.53125 222.808594 593.828125 221.523438 C 594.523438 221.257813 595.453125 220.929688 596.636719 220.523438 C 599.816406 219.417969 601.410156 217.96875 601.410156 216.164063 L 601.410156 213.140625 C 601.410156 211.203125 600.992188 209.785156 600.144531 208.90625 C 599.308594 208.023438 597.945313 207.585938 596.054688 207.585938 C 594.0625 207.585938 592.539063 208.15625 591.496094 209.289063 C 590.453125 210.433594 589.902344 212.140625 589.839844 214.394531 L 586.097656 214.394531 L 586.097656 213.621094 C 586.097656 210.851563 587.011719 208.640625 588.835938 207.011719 C 590.664063 205.371094 593.117188 204.5625 596.183594 204.5625 C 598.011719 204.5625 599.539063 204.789063 600.789063 205.242188 C 602.035156 205.695313 603.039063 206.386719 603.785156 207.332031 C 604.300781 207.980469 604.675781 208.742188 604.898438 209.609375 C 605.128906 210.480469 605.238281 211.742188 605.238281 213.394531 L 605.238281 234.917969 C 605.238281 236.746094 605.402344 237.878906 605.722656 238.308594 C 606.039063 238.738281 606.679688 238.957031 607.621094 238.957031 L 608.011719 238.957031 Z M 601.277344 222.257813 C 595.691406 224.421875 592.226563 226.171875 590.882813 227.515625 C 589.539063 228.847656 588.871094 230.5625 588.871094 232.664063 C 588.871094 234.710938 589.34375 236.316406 590.289063 237.503906 C 591.234375 238.683594 592.523438 239.277344 594.160156 239.277344 C 596.601563 239.277344 598.40625 238.386719 599.550781 236.613281 C 600.703125 234.84375 601.277344 232.0625 601.277344 228.253906 Z M 629.492188 241.652344 L 629.492188 217.222656 C 629.492188 213.394531 629.09375 210.90625 628.304688 209.742188 C 627.496094 208.585938 626.070313 208.003906 624.011719 208.003906 C 622.097656 208.003906 620.371094 208.640625 618.820313 209.90625 C 617.269531 211.167969 616.496094 212.535156 616.496094 213.996094 L 616.496094 241.652344 L 612.539063 241.652344 L 612.539063 205.429688 L 616.113281 205.429688 L 616.113281 209.390625 C 617.3125 207.695313 618.632813 206.453125 620.0625 205.667969 C 621.492188 204.890625 623.121094 204.496094 624.949219 204.496094 C 627.90625 204.496094 630.0625 205.398438 631.414063 207.210938 C 632.769531 209.027344 633.449219 211.953125 633.449219 215.96875 L 633.449219 241.652344 Z M 661.742188 229.3125 C 661.464844 233.6875 660.429688 237.011719 658.648438 239.265625 C 656.867188 241.519531 654.402344 242.652344 651.269531 242.652344 C 647.683594 242.652344 644.953125 241.035156 643.097656 237.796875 C 641.238281 234.570313 640.3125 229.828125 640.3125 223.570313 C 640.3125 217.234375 641.246094 212.46875 643.117188 209.28125 C 644.988281 206.089844 647.769531 204.496094 651.464844 204.496094 C 654.382813 204.496094 656.722656 205.484375 658.484375 207.476563 C 660.246094 209.464844 661.203125 212.207031 661.355469 215.714844 L 657.578125 215.714844 C 657.496094 213.351563 656.910156 211.46875 655.824219 210.082031 C 654.746094 208.695313 653.324219 208.003906 651.585938 208.003906 C 649.265625 208.003906 647.496094 209.34375 646.253906 212.019531 C 645.019531 214.691406 644.40625 218.539063 644.40625 223.570313 C 644.40625 228.496094 645.03125 232.324219 646.273438 235.046875 C 647.519531 237.78125 649.242188 239.144531 651.453125 239.144531 C 653.324219 239.144531 654.820313 238.285156 655.933594 236.570313 C 657.054688 234.84375 657.691406 232.417969 657.867188 229.3125 Z M 687.589844 230.042969 C 687.355469 234.148438 686.34375 237.285156 684.5625 239.429688 C 682.78125 241.574219 680.285156 242.652344 677.09375 242.652344 C 673.453125 242.652344 670.769531 241.101563 669.019531 237.996094 C 667.273438 234.886719 666.390625 230.101563 666.390625 223.632813 C 666.390625 217.15625 667.289063 212.347656 669.097656 209.234375 C 670.902344 206.121094 673.671875 204.5625 677.414063 204.5625 C 680.800781 204.5625 683.386719 205.878906 685.144531 208.519531 C 686.90625 211.160156 687.785156 215.054688 687.785156 220.191406 L 687.785156 223.246094 L 670.550781 223.246094 L 670.550781 225.285156 C 670.550781 229.949219 671.097656 233.433594 672.1875 235.746094 C 673.289063 238.054688 674.914063 239.210938 677.09375 239.210938 C 679.085938 239.210938 680.660156 238.414063 681.8125 236.824219 C 682.953125 235.230469 683.59375 232.972656 683.695313 230.042969 Z M 670.550781 219.992188 L 683.761719 219.992188 C 683.761719 219.816406 683.769531 219.554688 683.789063 219.191406 C 683.816406 218.828125 683.824219 218.5625 683.824219 218.417969 C 683.824219 215.066406 683.265625 212.480469 682.132813 210.65625 C 681.011719 208.828125 679.414063 207.914063 677.347656 207.914063 C 675.136719 207.914063 673.453125 208.914063 672.289063 210.929688 C 671.132813 212.929688 670.550781 215.847656 670.550781 219.671875 Z M 670.550781 219.992188 "/>
<path style=" stroke:none;fill-rule:evenodd;fill:rgb(100%,100%,100%);fill-opacity:1;" d="M 125.460938 46.011719 L 152.949219 46.011719 L 152.949219 77.566406 Z M 125.460938 46.011719 "/>
<path style=" stroke:none;fill-rule:evenodd;fill:rgb(100%,100%,100%);fill-opacity:1;" d="M 347.246094 188.535156 L 356.867188 188.535156 L 356.867188 199.578125 Z M 347.246094 188.535156 "/>
<path style=" stroke:none;fill-rule:evenodd;fill:rgb(100%,100%,100%);fill-opacity:1;" d="M 321.828125 117.277344 L 331.449219 117.277344 L 331.449219 128.324219 Z M 321.828125 117.277344 "/>
<path style=" stroke:none;fill-rule:evenodd;fill:rgb(100%,100%,100%);fill-opacity:1;" d="M 314.738281 160.371094 C 313.636719 160.371094 311.996094 158.976563 309.824219 156.175781 C 307.648438 153.371094 306.5625 151.246094 306.5625 149.800781 C 306.5625 149.246094 306.722656 148.777344 307.050781 148.371094 C 307.371094 147.976563 307.761719 147.777344 308.210938 147.777344 L 327.9375 147.777344 L 327.9375 140.277344 L 304.613281 140.277344 L 304.613281 134.800781 L 340.011719 134.800781 L 340.011719 140.277344 L 334.011719 140.277344 L 334.011719 172.300781 L 327.9375 172.300781 L 327.9375 153.175781 L 318.113281 153.175781 C 317.761719 153.175781 317.449219 153.3125 317.175781 153.589844 C 316.898438 153.863281 316.761719 154.203125 316.761719 154.601563 L 316.761719 158.652344 C 316.761719 159.152344 316.5625 159.5625 316.160156 159.890625 C 315.761719 160.214844 315.285156 160.371094 314.738281 160.371094 Z M 662.8125 173.425781 L 649.601563 153.175781 L 641.210938 153.175781 C 640.859375 153.175781 640.546875 153.3125 640.273438 153.589844 C 639.996094 153.863281 639.859375 154.203125 639.859375 154.601563 L 639.859375 158.652344 C 639.859375 159.152344 639.660156 159.5625 639.261719 159.890625 C 638.863281 160.214844 638.386719 160.371094 637.835938 160.371094 C 636.738281 160.371094 635.097656 158.976563 632.925781 156.175781 C 630.746094 153.371094 629.660156 151.246094 629.660156 149.800781 C 629.660156 149.246094 629.824219 148.777344 630.148438 148.371094 C 630.472656 147.976563 630.859375 147.777344 631.3125 147.777344 L 648.335938 147.777344 L 651.9375 145.371094 C 654.136719 149.226563 655.710938 151.152344 656.660156 151.152344 C 657.410156 151.152344 658.0625 150.890625 658.609375 150.363281 C 659.160156 149.839844 659.4375 149.199219 659.4375 148.449219 L 659.4375 140.277344 L 623.960938 140.277344 L 623.960938 148.074219 C 623.960938 150.226563 623.363281 152.074219 622.160156 153.621094 C 620.960938 155.175781 619.511719 155.953125 617.8125 155.953125 C 616.210938 155.953125 615.3125 155.828125 615.113281 155.578125 L 625.988281 170.277344 L 621.261719 173.425781 L 602.585938 147.996094 L 607.613281 144.328125 C 608.261719 146.175781 609.210938 147.664063 610.460938 148.789063 C 611.710938 149.914063 613.035156 150.476563 614.4375 150.476563 C 615.386719 150.476563 616.199219 150.152344 616.871094 149.496094 C 617.550781 148.851563 617.886719 148.050781 617.886719 147.101563 L 617.886719 140.277344 L 596.0625 140.277344 L 596.0625 172.300781 L 589.988281 172.300781 L 589.988281 140.277344 L 579.484375 140.277344 L 579.484375 172.300781 L 573.488281 172.300781 L 573.488281 163.074219 C 572.488281 164.074219 571.285156 164.839844 569.886719 165.363281 C 568.488281 165.886719 566.960938 166.152344 565.3125 166.152344 C 561.363281 166.152344 557.988281 164.621094 555.1875 161.574219 C 552.386719 158.527344 550.988281 154.828125 550.988281 150.476563 C 552.6875 150.925781 553.835938 151.152344 554.4375 151.152344 C 556.035156 151.152344 557.398438 150.613281 558.523438 149.539063 C 559.648438 148.464844 560.210938 147.175781 560.210938 145.675781 C 560.210938 144.675781 559.972656 143.703125 559.496094 142.746094 C 559.023438 141.800781 558.363281 140.976563 557.511719 140.277344 L 548.8125 140.277344 L 548.8125 134.800781 L 590.4375 134.800781 L 574.761719 119.578125 L 578.738281 116.121094 L 595.910156 134.800781 L 617.210938 134.800781 L 601.535156 119.578125 L 605.511719 116.121094 L 622.6875 134.800781 L 687.785156 134.800781 L 687.785156 140.277344 L 681.785156 140.277344 L 681.785156 172.300781 L 675.785156 172.300781 L 675.785156 155.953125 L 668.960938 155.953125 L 666.5625 150.476563 L 675.785156 150.476563 L 675.785156 140.277344 L 665.511719 140.277344 L 665.511719 149.800781 C 665.511719 151.699219 665.011719 153.3125 664.011719 154.636719 C 663.011719 155.964844 661.8125 156.621094 660.410156 156.621094 C 659.960938 156.621094 659.5625 156.5625 659.210938 156.4375 C 658.859375 156.3125 658.585938 156.152344 658.386719 155.953125 L 667.910156 169.902344 Z M 565.3125 160.675781 C 566.660156 160.675781 568.050781 160.265625 569.472656 159.4375 C 570.898438 158.613281 572.238281 157.453125 573.488281 155.953125 L 573.488281 140.277344 L 563.960938 140.277344 C 565.460938 142.871094 566.210938 144.675781 566.210938 145.675781 C 566.210938 148.121094 565.425781 150.277344 563.847656 152.121094 C 562.273438 153.976563 560.261719 155.121094 557.8125 155.578125 C 558.363281 157.121094 559.324219 158.363281 560.699219 159.289063 C 562.074219 160.214844 563.613281 160.675781 565.3125 160.675781 Z M 541.164063 173.425781 L 524.363281 157.976563 L 528.488281 153.925781 L 531.5625 156.621094 C 533.761719 156.621094 535.699219 155.953125 537.371094 154.601563 C 539.050781 153.246094 540.0625 151.527344 540.414063 149.425781 C 539.761719 149.976563 538.996094 150.402344 538.121094 150.699219 C 537.246094 150.996094 536.3125 151.152344 535.3125 151.152344 C 532.761719 151.152344 530.585938 150.351563 528.789063 148.746094 L 528.785156 148.746094 L 528.785156 153.175781 L 518.210938 153.175781 C 517.863281 153.175781 517.550781 153.3125 517.273438 153.589844 C 516.996094 153.863281 516.863281 154.203125 516.863281 154.601563 L 516.863281 158.652344 C 516.863281 159.152344 516.660156 159.5625 516.261719 159.890625 C 515.863281 160.214844 515.386719 160.371094 514.835938 160.371094 C 513.738281 160.371094 512.097656 158.976563 509.925781 156.175781 C 507.746094 153.371094 506.660156 151.246094 506.660156 149.800781 C 506.660156 149.246094 506.824219 148.777344 507.148438 148.371094 C 507.476563 147.976563 507.863281 147.777344 508.3125 147.777344 L 527.828125 147.777344 C 526.664063 146.386719 526.085938 144.785156 526.085938 142.976563 C 526.085938 140.527344 527.050781 138.425781 528.972656 136.675781 C 530.898438 134.925781 533.210938 134.050781 535.914063 134.050781 C 539.210938 134.050781 541.863281 135.238281 543.863281 137.613281 C 545.863281 139.988281 546.863281 143.152344 546.863281 147.101563 C 546.863281 150.496094 545.863281 153.476563 543.863281 156.027344 C 541.863281 158.574219 539.335938 160.121094 536.289063 160.675781 L 545.511719 168.925781 Z M 535.988281 146.425781 C 537.085938 146.425781 538.039063 146.089844 538.835938 145.414063 C 539.636719 144.738281 540.039063 143.925781 540.039063 142.976563 C 540.039063 142.027344 539.636719 141.226563 538.835938 140.578125 C 538.039063 139.925781 537.085938 139.601563 535.988281 139.601563 C 534.835938 139.601563 533.863281 139.925781 533.0625 140.578125 C 532.261719 141.226563 531.863281 142.027344 531.863281 142.976563 C 531.863281 143.925781 532.261719 144.738281 533.0625 145.414063 C 533.863281 146.089844 534.835938 146.425781 535.988281 146.425781 Z M 506.210938 134.800781 L 523.539063 134.800781 L 523.539063 140.277344 L 499.460938 140.277344 L 499.460938 149.121094 L 486.636719 149.121094 C 486.136719 149.121094 485.699219 149.265625 485.324219 149.539063 C 484.949219 149.8125 484.761719 150.121094 484.761719 150.476563 C 484.761719 151.175781 485.273438 152.039063 486.300781 153.0625 C 487.324219 154.089844 488.1875 154.601563 488.886719 154.601563 C 489.6875 154.601563 490.863281 154.363281 492.410156 153.886719 C 493.960938 153.414063 495.136719 153.175781 495.9375 153.175781 C 497.886719 153.175781 499.550781 153.914063 500.925781 155.386719 C 502.300781 156.863281 502.988281 158.652344 502.988281 160.746094 C 502.988281 163.449219 502.148438 165.828125 500.472656 167.871094 C 498.800781 169.925781 496.6875 171.175781 494.136719 171.621094 C 495.9375 173.425781 498.4375 175.246094 501.636719 177.101563 L 498.5625 181.976563 C 493.460938 179.027344 489.710938 176.121094 487.3125 173.277344 C 484.710938 173.277344 482.488281 172.6875 480.636719 171.511719 C 478.785156 170.339844 477.863281 168.902344 477.863281 167.203125 C 477.863281 166.050781 478.285156 165.074219 479.136719 164.277344 C 479.988281 163.476563 481.011719 163.074219 482.210938 163.074219 C 483.460938 163.074219 485.835938 164.550781 489.335938 167.496094 C 491.488281 167.496094 493.335938 166.871094 494.886719 165.621094 C 496.4375 164.371094 497.210938 162.851563 497.210938 161.050781 C 497.210938 160.449219 497.050781 159.925781 496.722656 159.476563 C 496.398438 159.027344 496.011719 158.800781 495.5625 158.800781 C 494.710938 158.800781 493.449219 158.996094 491.773438 159.402344 C 490.101563 159.800781 488.835938 159.996094 487.988281 159.996094 C 486.4375 159.996094 484.472656 158.800781 482.097656 156.402344 C 479.722656 153.996094 478.535156 151.996094 478.535156 150.402344 C 478.535156 148.699219 479.324219 147.265625 480.898438 146.089844 C 482.472656 144.914063 484.386719 144.328125 486.636719 144.328125 L 493.460938 144.328125 L 493.460938 140.277344 L 474.710938 140.277344 L 474.710938 134.800781 Z M 446.4375 172.300781 L 446.4375 151.320313 C 444.914063 151.746094 443.480469 152.6875 442.121094 154.152344 C 440.550781 155.851563 439.285156 158.027344 438.335938 160.675781 L 433.535156 157.976563 C 433.785156 157.027344 434.113281 156.152344 434.511719 155.351563 C 434.910156 154.550781 435.386719 153.828125 435.9375 153.175781 C 435.335938 152.578125 434.535156 152.113281 433.535156 151.789063 C 432.535156 151.464844 431.410156 151.300781 430.160156 151.300781 C 428.660156 151.300781 427.386719 151.777344 426.335938 152.726563 C 425.285156 153.675781 424.761719 154.828125 424.761719 156.175781 C 424.761719 158.476563 425.699219 160.664063 427.574219 162.738281 C 429.449219 164.8125 431.910156 166.402344 434.960938 167.496094 L 431.886719 172.300781 C 427.886719 170.453125 424.699219 168.0625 422.324219 165.136719 C 419.949219 162.214844 418.761719 159.226563 418.761719 156.175781 C 418.761719 153.277344 419.871094 150.800781 422.097656 148.746094 C 424.324219 146.699219 427.011719 145.675781 430.160156 145.675781 C 431.761719 145.675781 433.273438 145.996094 434.699219 146.652344 C 436.121094 147.300781 437.335938 148.226563 438.335938 149.425781 C 439.335938 148.226563 440.613281 147.300781 442.160156 146.652344 C 443.496094 146.09375 444.914063 145.773438 446.4375 145.695313 L 446.4375 140.277344 L 411.261719 140.277344 L 411.261719 172.300781 L 405.1875 172.300781 L 405.1875 153.175781 L 395.363281 153.175781 C 395.011719 153.175781 394.699219 153.3125 394.425781 153.589844 C 394.148438 153.863281 394.011719 154.203125 394.011719 154.601563 L 394.011719 158.652344 C 394.011719 159.152344 393.8125 159.5625 393.410156 159.890625 C 393.011719 160.214844 392.535156 160.371094 391.988281 160.371094 C 390.886719 160.371094 389.246094 158.976563 387.074219 156.175781 C 384.898438 153.371094 383.8125 151.246094 383.8125 149.800781 C 383.8125 149.246094 383.972656 148.777344 384.300781 148.371094 C 384.621094 147.976563 385.011719 147.777344 385.460938 147.777344 L 405.1875 147.777344 L 405.1875 140.277344 L 377.359375 140.277344 L 377.359375 172.300781 L 371.285156 172.300781 L 371.285156 140.277344 L 365.285156 140.277344 L 365.285156 134.800781 L 458.511719 134.800781 L 458.511719 140.277344 L 452.511719 140.277344 L 452.511719 172.300781 Z M 357.636719 173.425781 L 340.835938 157.976563 L 344.960938 153.925781 L 348.039063 156.621094 C 350.238281 156.621094 352.175781 155.953125 353.851563 154.601563 C 355.523438 153.246094 356.535156 151.527344 356.886719 149.425781 C 356.238281 149.976563 355.476563 150.402344 354.601563 150.699219 C 353.726563 150.996094 352.785156 151.152344 351.785156 151.152344 C 349.238281 151.152344 347.0625 150.351563 345.261719 148.746094 C 343.460938 147.152344 342.5625 145.226563 342.5625 142.976563 C 342.5625 140.527344 343.523438 138.425781 345.449219 136.675781 C 347.371094 134.925781 349.6875 134.050781 352.386719 134.050781 C 355.6875 134.050781 358.335938 135.238281 360.335938 137.613281 C 362.335938 139.988281 363.335938 143.152344 363.335938 147.101563 C 363.335938 150.496094 362.335938 153.476563 360.335938 156.027344 C 358.335938 158.574219 355.8125 160.121094 352.761719 160.675781 L 361.988281 168.925781 Z M 352.460938 146.425781 C 353.5625 146.425781 354.511719 146.089844 355.3125 145.414063 C 356.113281 144.738281 356.511719 143.925781 356.511719 142.976563 C 356.511719 142.027344 356.113281 141.226563 355.3125 140.578125 C 354.511719 139.925781 353.5625 139.601563 352.460938 139.601563 C 351.3125 139.601563 350.335938 139.925781 349.539063 140.578125 C 348.738281 141.226563 348.335938 142.027344 348.335938 142.976563 C 348.335938 143.925781 348.738281 144.738281 349.539063 145.414063 C 350.335938 146.089844 351.3125 146.425781 352.460938 146.425781 Z M 352.460938 146.425781 "/>
</g>
</svg>
